<?xml version="1.0" encoding="UTF-8" standalone="no"?>
<svg
   xmlns:dc="http://purl.org/dc/elements/1.1/"
   xmlns:cc="http://creativecommons.org/ns#"
   xmlns:rdf="http://www.w3.org/1999/02/22-rdf-syntax-ns#"
   xmlns:svg="http://www.w3.org/2000/svg"
   xmlns="http://www.w3.org/2000/svg"
   xmlns:sodipodi="http://sodipodi.sourceforge.net/DTD/sodipodi-0.dtd"
   xmlns:inkscape="http://www.inkscape.org/namespaces/inkscape"
   version="1.1"
   id="svg2"
   xml:space="preserve"
   width="1600"
   height="1600"
   viewBox="0 0 1600 1600"
   sodipodi:docname="vector60-5837-01.eps"><metadata
     id="metadata8"><rdf:RDF><cc:Work
         rdf:about=""><dc:format>image/svg+xml</dc:format><dc:type
           rdf:resource="http://purl.org/dc/dcmitype/StillImage" /></cc:Work></rdf:RDF></metadata><defs
     id="defs6" /><sodipodi:namedview
     pagecolor="#ffffff"
     bordercolor="#666666"
     borderopacity="1"
     objecttolerance="10"
     gridtolerance="10"
     guidetolerance="10"
     inkscape:pageopacity="0"
     inkscape:pageshadow="2"
     inkscape:window-width="640"
     inkscape:window-height="480"
     id="namedview4" /><g
     id="g10"
     inkscape:groupmode="layer"
     inkscape:label="ink_ext_XXXXXX"
     transform="matrix(1.3333333,0,0,-1.3333333,0,1600)"><g
       id="g12"
       transform="scale(0.1)"><path
         d="M 4668.08,5316.5 V 3289.63 c 0,-515.35 410.98,-934.63 916.15,-934.63 h 3364.62 c 505.16,0 916.15,419.28 916.15,934.63 V 8710.37 C 9865,9225.73 9454.01,9645 8948.85,9645 H 5584.23 c -505.17,0 -916.15,-419.27 -916.15,-934.63 V 6946.45 h 545.84 v 1763.92 c 0,209.59 166.12,380.1 370.31,380.1 h 3364.62 c 204.19,0 370.31,-170.51 370.31,-380.1 V 3289.63 c 0,-209.59 -166.12,-380.1 -370.31,-380.1 H 5584.23 c -204.19,0 -370.31,170.51 -370.31,380.1 V 5316.5 Z M 8948.85,2305 H 5584.23 c -532.74,0 -966.15,441.7 -966.15,984.63 V 5366.5 h 645.84 V 3289.63 c 0,-182.02 143.69,-330.1 320.31,-330.1 h 3364.62 c 176.62,0 320.31,148.08 320.31,330.1 v 5420.74 c 0,182.02 -143.69,330.1 -320.31,330.1 H 5584.23 c -176.62,0 -320.31,-148.08 -320.31,-330.1 V 6896.45 h -645.84 v 1813.92 c 0,542.93 433.41,984.63 966.15,984.63 H 8948.85 C 9481.58,9695 9915,9253.3 9915,8710.37 V 3289.63 C 9915,2746.7 9481.58,2305 8948.85,2305"
         style="fill:#211d1d;fill-opacity:1;fill-rule:nonzero;stroke:none"
         id="path14" /><path
         d="m 3998.42,8257.53 -1.06,-0.01 c -81.89,-0.32 -158.34,-32.78 -215.45,-91.42 L 1982.52,6319.11 c -117.38,-120.48 -116.63,-315.76 1.68,-435.3 L 3797.78,4051.27 c 57.25,-57.85 133.52,-89.71 214.74,-89.71 l 1.23,0.01 c 81.72,0.31 158.18,32.79 215.3,91.41 117.39,120.49 116.63,315.76 -1.68,435.31 l -1354.2,1368.35 h 4309.39 c 155.74,0 282.44,128.42 282.44,286.27 0,157.84 -126.7,286.26 -282.44,286.26 H 2945.1 l 1269.76,1303.35 c 117.38,120.49 116.61,315.76 -1.69,435.3 -57.25,57.85 -133.51,89.71 -214.75,89.71 z m 14.1,-4345.97 c -94.67,0 -183.56,37.13 -250.27,104.53 L 1948.67,5848.63 c -137.36,138.79 -138.24,365.5 -1.96,505.37 l 1799.38,1847 c 66.55,68.32 155.66,106.15 250.9,106.52 l 1.43,0.01 c 94.69,0 183.58,-37.12 250.29,-104.54 137.34,-138.78 138.23,-365.48 1.96,-505.36 L 3063.62,6479.17 h 4118.94 c 183.31,0 332.44,-150.85 332.44,-336.26 0,-185.42 -149.13,-336.27 -332.44,-336.27 H 2993 L 4262.91,4523.47 c 137.35,-138.8 138.23,-365.51 1.95,-505.37 -66.56,-68.33 -155.67,-106.16 -250.91,-106.53 l -1.43,-0.01"
         style="fill:#211d1d;fill-opacity:1;fill-rule:nonzero;stroke:none"
         id="path16" /></g></g></svg>
