<?xml version="1.0" encoding="UTF-8" standalone="no"?>
<svg
   xmlns:dc="http://purl.org/dc/elements/1.1/"
   xmlns:cc="http://creativecommons.org/ns#"
   xmlns:rdf="http://www.w3.org/1999/02/22-rdf-syntax-ns#"
   xmlns:svg="http://www.w3.org/2000/svg"
   xmlns="http://www.w3.org/2000/svg"
   xmlns:sodipodi="http://sodipodi.sourceforge.net/DTD/sodipodi-0.dtd"
   xmlns:inkscape="http://www.inkscape.org/namespaces/inkscape"
   version="1.1"
   id="svg2"
   xml:space="preserve"
   width="1600"
   height="1600"
   viewBox="0 0 1600 1600"
   sodipodi:docname="vector60-5835-01.eps"><metadata
     id="metadata8"><rdf:RDF><cc:Work
         rdf:about=""><dc:format>image/svg+xml</dc:format><dc:type
           rdf:resource="http://purl.org/dc/dcmitype/StillImage" /></cc:Work></rdf:RDF></metadata><defs
     id="defs6" /><sodipodi:namedview
     pagecolor="#ffffff"
     bordercolor="#666666"
     borderopacity="1"
     objecttolerance="10"
     gridtolerance="10"
     guidetolerance="10"
     inkscape:pageopacity="0"
     inkscape:pageshadow="2"
     inkscape:window-width="640"
     inkscape:window-height="480"
     id="namedview4" /><g
     id="g10"
     inkscape:groupmode="layer"
     inkscape:label="ink_ext_XXXXXX"
     transform="matrix(1.3333333,0,0,-1.3333333,0,1600)"><g
       id="g12"
       transform="scale(0.1)"><path
         d="M 8948.85,9670 H 5584.23 c -518.96,0 -941.15,-430.49 -941.15,-959.63 V 6921.45 h 595.84 v 1788.92 c 0,195.8 154.9,355.1 345.31,355.1 h 3364.62 c 190.41,0 345.31,-159.3 345.31,-355.1 V 3289.63 c 0,-195.8 -154.9,-355.1 -345.31,-355.1 H 5584.23 c -190.41,0 -345.31,159.3 -345.31,355.1 V 5341.5 H 4643.08 V 3289.63 c 0,-529.14 422.19,-959.63 941.15,-959.63 h 3364.62 c 518.95,0 941.15,430.49 941.15,959.63 v 5420.74 c 0,529.14 -422.2,959.63 -941.15,959.63"
         style="fill:#211d1d;fill-opacity:1;fill-rule:nonzero;stroke:none"
         id="path14" /><path
         d="m 2933.09,5831.64 h 4249.47 c 169.52,0 307.44,139.63 307.44,311.27 0,171.63 -137.92,311.26 -307.44,311.26 h -4178.2 l 1228.41,1260.9 c 126.81,130.18 126,341.18 -1.83,470.34 -62.01,62.66 -144.54,97.12 -232.52,97.12 -0.44,0 -0.89,0 -1.33,-0.01 -88.48,-0.34 -171.26,-35.49 -233.09,-98.97 L 1964.61,6336.56 c -126.83,-130.18 -126.01,-341.17 1.83,-470.34 L 3780.01,4033.68 c 62.02,-62.65 144.54,-97.12 232.51,-97.12 0.44,0 0.89,0 1.33,0.01 88.48,0.34 171.27,35.49 233.11,98.97 126.83,130.17 126.01,341.17 -1.82,470.34 L 2933.09,5831.64"
         style="fill:#211d1d;fill-opacity:1;fill-rule:nonzero;stroke:none"
         id="path16" /></g></g></svg>
